<!-- Placeholder SVG for calendar app logo -->
<svg width="60" height="60" viewBox="0 0 60 60" xmlns="http://www.w3.org/2000/svg">
  <defs>
    <linearGradient id="calendarGradient" x1="0%" y1="0%" x2="100%" y2="100%">
      <stop offset="0%" style="stop-color:#667eea;stop-opacity:1" />
      <stop offset="100%" style="stop-color:#764ba2;stop-opacity:1" />
    </linearGradient>
  </defs>
  
  <!-- Background -->
  <rect width="60" height="60" rx="12" fill="url(#calendarGradient)"/>
  
  <!-- Calendar base -->
  <rect x="12" y="18" width="36" height="30" rx="3" fill="white" opacity="0.9"/>
  
  <!-- Calendar top -->
  <rect x="12" y="18" width="36" height="8" rx="3" fill="white"/>
  <rect x="12" y="23" width="36" height="3" fill="#667eea"/>
  
  <!-- Calendar rings -->
  <circle cx="20" cy="15" r="2" fill="none" stroke="white" stroke-width="2"/>
  <circle cx="40" cy="15" r="2" fill="none" stroke="white" stroke-width="2"/>
  <line x1="20" y1="12" x2="20" y2="18" stroke="white" stroke-width="2"/>
  <line x1="40" y1="12" x2="40" y2="18" stroke="white" stroke-width="2"/>
  
  <!-- Calendar grid -->
  <line x1="18" y1="30" x2="24" y2="30" stroke="#667eea" stroke-width="1"/>
  <line x1="27" y1="30" x2="33" y2="30" stroke="#667eea" stroke-width="1"/>
  <line x1="36" y1="30" x2="42" y2="30" stroke="#667eea" stroke-width="1"/>
  
  <line x1="18" y1="34" x2="24" y2="34" stroke="#667eea" stroke-width="1"/>
  <line x1="27" y1="34" x2="33" y2="34" stroke="#667eea" stroke-width="1"/>
  <line x1="36" y1="34" x2="42" y2="34" stroke="#667eea" stroke-width="1"/>
  
  <line x1="18" y1="38" x2="24" y2="38" stroke="#667eea" stroke-width="1"/>
  <line x1="27" y1="38" x2="33" y2="38" stroke="#667eea" stroke-width="1"/>
  
  <!-- Important date highlight -->
  <circle cx="30" cy="34" r="3" fill="#4facfe" opacity="0.8"/>
  
  <!-- AI indicator -->
  <circle cx="42" cy="42" r="3" fill="#4facfe"/>
  <text x="42" y="45" text-anchor="middle" fill="white" font-size="6" font-weight="bold">AI</text>
</svg>